# xmcd
#
# Track frame offsets:
#	150
#	21987
#	40135
#	59040
#	83595
#	101850
#	124862
#	141725
#	170540
#	186952
#	208625
#	222090
#	240287
#	261640
#	275360
#
# Disc length: 3958 seconds
#
# Revision: 0
# Processed by: cddbd v1.5.2PL0 Copyright (c) Steve Scherf et al.
# Submitted via: audiograbber 1.83.01
#
DISCID=e90f740f
DTITLE=Paul Rodgers - Muddy Water Blues - A Tribute To Muddy Waters
DYEAR=1993
DGENRE=Blues
TTITLE0=Muddy Water Blues [acoustic version] [lead guitar - Buddy Guy]
TTITLE1=Louisiana Blues [lead guitar - Trevor Rabin]
TTITLE2=I Can't Be Satisfied [lead guitar - Brian Setzer]
TTITLE3=Rollin' Stone [lead guitar - Jeff Beck]
TTITLE4=Good Morning Little School Girl (Part 1) [lead guitar - Jeff Beck]
TTITLE5=I'm Your Hoochie Coochie Man [lead guitar - Steve Miller]
TTITLE6=She's Alright [lead guitar - Trevor Rabin]
TTITLE7=Standing Around Crying [lead guitar - David Gilmour]
TTITLE8=The Hunter [lead guitar - Slash]
TTITLE9=She Moves Me [lead guitar - Gary Moore]
TTITLE10=I'm Ready [lead guitar - Brian May]
TTITLE11=I Just Want To Make Love To You [lead guitar - Jeff Beck]
TTITLE12=Born Under A Bad Sign [lead guitar - Neal Schon]
TTITLE13=Good Morning Little School Girl (Part 2) [lead guitar - Richie Sambora
TTITLE13=]
TTITLE14=Muddy Water Blues [electric version] [lead guitar - Neal Schon]
EXTD=
EXTT0=
EXTT1=
EXTT2=
EXTT3=
EXTT4=
EXTT5=
EXTT6=
EXTT7=
EXTT8=
EXTT9=
EXTT10=
EXTT11=
EXTT12=
EXTT13=
EXTT14=
PLAYORDER=
